#!OML:ASF C:\ViconDB\ViconDB\414\Spring2016\042216\male.ASF
:FULLY-SPECIFIED
:DEGREES
834
root 43.2521 18.0629 10.5272 1034.93 80.3121 1390.9
lowerback 0.808163 -3.08189 6.59445
upperback 0.166717 -4.05584 -0.884538
thorax -0.802653 -2.05167 -4.52548
lowerneck 1.16171 13.4996 -0.421379
upperneck -3.81625 17.8413 -7.11912
head -0.741149 9.03689 -2.23806
rclavicle -5.89397e-014 5.56597e-015
rhumerus -30.6953 1.9773 -93.6449
rradius 33.699
rwrist 27.8269
rhand 14.1495 -19.0593
rfingers 7.12502
rthumb 39.0504 -44.5648
lclavicle -5.89397e-014 5.56597e-015
lhumerus -26.9451 19.7513 80.5597
lradius 39.0242
lwrist -8.30574
lhand -9.42607 14.496
lfingers 7.12502
lthumb 16.5363 43.8114
rfemur -15.979 11.9022 20.289
rtibia 23.9237
rfoot -16.512 1.38504
rtoes -21.0342
lfemur -12.4922 -8.62757 -12.4102
ltibia 24.3034
lfoot -12.1884 15.7306
ltoes -21.8311
835
root 43.2927 18.0661 10.533 1031.94 80.8225 1387.96
lowerback 0.763427 -3.09403 6.62756
upperback 0.210331 -4.07571 -0.837713
thorax -0.733856 -2.05794 -4.49901
lowerneck 1.11538 13.5466 -0.396745
upperneck -3.77586 17.9099 -6.96082
head -0.730967 9.06678 -2.188
rclavicle 2.71838e-014 -3.97569e-015
rhumerus -30.511 2.16521 -93.7148
rradius 33.7126
rwrist 28.1823
rhand 14.1723 -18.6782
rfingers 7.12502
rthumb 39.072 -44.1776
lclavicle 2.71838e-014 -3.97569e-015
lhumerus -27.1317 19.9053 80.5319
lradius 38.6385
lwrist -8.80192
lhand -9.40059 14.4123
lfingers 7.12502
lthumb 16.5608 43.7256
rfemur -16.3624 11.7402 20.3439
rtibia 23.9709
rfoot -16.4284 3.18228
rtoes -21.2532
lfemur -12.3306 -8.83227 -12.5256
ltibia 24.1535
lfoot -12.804 15.4326
ltoes -21.1943
836
root 43.3298 18.0716 10.545 1028.67 81.4494 1384.69
lowerback 0.690412 -3.12671 6.50654
upperback 0.20187 -4.12511 -0.814179
thorax -0.69769 -2.08127 -4.40953
lowerneck 1.16133 13.5558 -0.504493
upperneck -3.78914 17.9207 -6.73208
head -0.773571 9.07098 -2.1108
rclavicle 4.08999e-014 1.11319e-014
rhumerus -30.4149 2.59439 -93.9277
rradius 33.9215
rwrist 27.3618
rhand 14.1397 -19.276
rfingers 7.12502
rthumb 39.0413 -44.7842
lclavicle 4.08999e-014 1.11319e-014
lhumerus -27.3766 19.8987 80.5176
lradius 38.4453
lwrist -8.90363
lhand -9.22059 14.7137
lfingers 7.12502
lthumb 16.7341 44.0125
rfemur -16.7825 11.5739 20.2633
rtibia 24.022
rfoot -16.3075 5.10815
rtoes -20.8529
lfemur -12.2704 -8.9187 -12.7454
ltibia 23.9999
lfoot -12.4102 14.7989
ltoes -22.1914
837
root 43.3636 18.0718 10.5595 1024.53 82.1423 1380.56
lowerback 0.695904 -3.18218 6.28071
upperback 0.162872 -4.19947 -0.817898
thorax -0.734451 -2.12011 -4.28322
lowerneck 1.24316 13.6022 -0.292086
upperneck -3.75405 17.9884 -6.69786
head -0.758178 9.1019 -2.13404
rclavicle 7.65321e-014 5.56597e-015
rhumerus -30.3497 2.48522 -93.9853
rradius 33.8668
rwrist 28.183
rhand 14.3116 -18.7768
rfingers 7.12502
rthumb 39.2033 -44.2383
lclavicle 7.65321e-014 5.56597e-015
lhumerus -27.6686 20.0078 80.4163
lradius 38.1204
lwrist -9.16062
lhand -9.31443 14.7727
lfingers 7.12502
lthumb 16.6437 44.079
rfemur -17.1076 11.6239 20.1067
rtibia 24.0428
rfoot -16.1248 6.70365
rtoes -20.483
lfemur -12.199 -8.96373 -13.009
ltibia 23.8438
lfoot -13.4914 14.2643
ltoes -21.0359
838
root 43.4016 18.0677 10.5717 1020 82.5937 1376.1
lowerback 0.733461 -3.18961 6.25778
upperback 0.149479 -4.20638 -0.795226
thorax -0.766815 -2.12472 -4.24398
lowerneck 1.2171 13.6238 -0.307231
upperneck -3.65762 18.0251 -6.42259
head -0.749506 9.11348 -2.04355
rclavicle 7.98617e-014 1.27222e-014
rhumerus -30.2696 2.64083 -94.0776
rradius 33.8314
rwrist 28.1585
rhand 14.4244 -18.4812
rfingers 7.12502
rthumb 39.3096 -43.9118
lclavicle 7.98617e-014 1.27222e-014
lhumerus -27.9414 20.3213 80.2155
lradius 37.7228
lwrist -9.88538
lhand -9.05039 14.6938
lfingers 7.12502
lthumb 16.8979 43.9786
rfemur -17.3008 11.8985 20.1316
rtibia 24.004
rfoot -15.9308 8.12291
rtoes -19.2337
lfemur -12.0584 -9.0438 -13.1263
ltibia 23.7449
lfoot -14.5452 13.8425
ltoes -19.3169
839
root 43.4435 18.0644 10.582 1014.9 83.0457 1371.06
lowerback 0.671022 -3.20414 6.246
upperback 0.096927 -4.22864 -0.788139
thorax -0.787407 -2.1378 -4.23123
lowerneck 1.34734 13.6614 -0.201584
upperneck -3.54477 18.0822 -6.2812
head -0.73753 9.13779 -2.02093
rclavicle -1.82882e-014 -4.77083e-015
rhumerus -30.3146 2.83081 -94.2802
rradius 33.8329
rwrist 27.6505
rhand 13.821 -18.9755
rfingers 7.12502
rthumb 38.7407 -44.5693
lclavicle -1.82882e-014 -4.77083e-015
lhumerus -28.3049 20.7056 79.9356
lradius 37.264
lwrist -10.4134
lhand -8.83564 14.4022
lfingers 7.12502
lthumb 17.1046 43.6692
rfemur -17.3969 11.8778 20.1296
rtibia 23.8208
rfoot -15.7437 9.74807
rtoes -18.5752
lfemur -12.0058 -9.03438 -13.3036
ltibia 23.7661
lfoot -15.3107 13.2894
ltoes -18.8887
840
root 43.4861 18.0591 10.5975 1009.1 83.4545 1365.28
lowerback 0.523188 -3.20972 6.16152
upperback 0.0912138 -4.24645 -0.772278
thorax -0.705221 -2.14399 -4.17614
lowerneck 1.27785 13.7169 -0.193518
upperneck -3.38645 18.1679 -6.0087
head -0.698497 9.17217 -1.92746
rclavicle -3.37934e-015 1.03368e-014
rhumerus -30.2834 2.94458 -94.3987
rradius 33.8311
rwrist 27.4322
rhand 13.7333 -19.0928
rfingers 7.12502
rthumb 38.658 -44.71
lclavicle -3.37934e-015 1.03368e-014
lhumerus -28.6063 20.6975 79.8302
lradius 36.9304
lwrist -10.6063
lhand -8.93647 14.4913
lfingers 7.12502
lthumb 17.0076 43.7668
rfemur -17.4296 11.9273 20.1118
rtibia 23.5574
rfoot -15.3572 11.2464
rtoes -17.1413
lfemur -11.9861 -9.16632 -13.4797
ltibia 23.86
lfoot -15.4531 12.7889
ltoes -19.6553
841
root 43.5408 18.0455 10.609 1003.48 83.7709 1359.85
lowerback 0.416976 -3.1628 6.21012
upperback 0.0983915 -4.19114 -0.792746
thorax -0.636754 -2.11427 -4.23281
lowerneck 1.33364 13.7512 -0.228792
upperneck -3.18624 18.2232 -5.72618
head -0.67294 9.19282 -1.83427
rclavicle 2.54444e-014 6.36111e-015
rhumerus -30.3723 3.22274 -94.5266
rradius 33.7922
rwrist 27.3558
rhand 13.8518 -18.9165
rfingers 7.12502
rthumb 38.7698 -44.5021
lclavicle 2.54444e-014 6.36111e-015
lhumerus -28.9512 20.7395 79.6613
lradius 36.5059
lwrist -10.962
lhand -8.91471 14.5587
lfingers 7.12502
lthumb 17.0285 43.8324
rfemur -17.1609 12.1383 20.1202
rtibia 23.2104
rfoot -15.0844 12.3517
rtoes -17.5383
lfemur -11.7337 -9.45573 -13.7215
ltibia 23.9963
lfoot -15.3503 12.5535
ltoes -20.6932
842
root 43.5775 18.0362 10.6278 993.933 84.1328 1350.34
lowerback 0.350162 -3.21262 6.06914
upperback 0.0424611 -4.26115 -0.78311
thorax -0.654428 -2.15083 -4.14434
lowerneck 1.30823 13.737 -0.467066
upperneck -3.00537 18.2106 -5.3194
head -0.672096 9.17969 -1.67359
rclavicle 1.98785e-016 8.74653e-015
rhumerus -30.3745 3.1229 -94.4982
rradius 33.8575
rwrist 26.994
rhand 13.7449 -19.3759
rfingers 7.12502
rthumb 38.669 -44.99
lclavicle 1.98785e-016 8.74653e-015
lhumerus -29.2566 21.0151 79.4992
lradius 36.0879
lwrist -11.4576
lhand -8.66924 14.5949
lfingers 7.12502
lthumb 17.2648 43.848
rfemur -16.9685 12.0799 20.055
rtibia 22.7958
rfoot -14.5837 13.2552
rtoes -17.3664
lfemur -11.8162 -9.60422 -13.968
ltibia 24.1893
lfoot -16.2773 11.9396
ltoes -19.664
843
root 43.6204 18.0227 10.646 984.225 84.3622 1340.74
lowerback 0.292191 -3.24222 5.92362
upperback -0.00600557 -4.30386 -0.794227
thorax -0.667106 -2.1734 -4.07537
lowerneck 1.35664 13.8199 -0.226719
upperneck -2.76386 18.3364 -5.27569
head -0.583525 9.23595 -1.68297
rclavicle -1.63997e-015 -1.82882e-014
rhumerus -30.4528 3.24929 -94.5536
rradius 33.7183
rwrist 27.1645
rhand 13.4668 -19.1662
rfingers 7.12502
rthumb 38.4066 -44.8536
lclavicle -1.63997e-015 -1.82882e-014
lhumerus -29.6033 21.1333 79.3292
lradius 35.8579
lwrist -11.8754
lhand -8.52377 15.137
lfingers 7.12502
lthumb 17.4048 44.3778
rfemur -16.6079 12.0359 19.9396
rtibia 22.2656
rfoot -13.6672 14.2966
rtoes -16.7505
lfemur -11.8021 -9.74431 -14.2795
ltibia 24.4645
lfoot -17.3739 11.3718
ltoes -18.3619
844
root 43.6703 18.0053 10.6621 974.75 84.4138 1331.42
lowerback 0.133083 -3.24724 5.83043
upperback 0.0069237 -4.32128 -0.785605
thorax -0.559022 -2.1783 -4.02469
lowerneck 1.2472 13.8725 -0.348399
upperneck -2.45597 18.4206 -4.97233
head -0.506977 9.26902 -1.55391
rclavicle -1.65985e-014 1.66979e-014
rhumerus -30.5022 3.4719 -94.5958
rradius 33.6517
rwrist 27.0297
rhand 13.2026 -19.3128
rfingers 7.12502
rthumb 38.1572 -45.0691
lclavicle -1.65985e-014 1.66979e-014
lhumerus -29.9475 21.3291 79.1744
lradius 35.3595
lwrist -12.1983
lhand -8.51125 14.9476
lfingers 7.12502
lthumb 17.4169 44.1873
rfemur -16.1501 11.7756 19.9243
rtibia 21.7575
rfoot -12.6845 15.3477
rtoes -17.1474
lfemur -11.7056 -9.61823 -14.5687
ltibia 24.725
lfoot -18.397 10.5548
ltoes -17.1538
845
root 43.7198 17.9851 10.68 965.182 84.297 1321.95
lowerback -0.232287 -3.30414 5.64478
upperback 0.0919717 -4.42185 -0.730307
thorax -0.259537 -2.21732 -3.88906
lowerneck 1.0716 13.9583 -0.637966
upperneck -2.25048 18.5428 -4.59065
head -0.474212 9.32303 -1.38183
rclavicle 4.50744e-014 7.15625e-015
rhumerus -30.3757 3.68741 -94.6372
rradius 33.5522
rwrist 26.9512
rhand 13.0906 -19.4808
rfingers 7.12502
rthumb 38.0514 -45.266
lclavicle 4.50744e-014 7.15625e-015
lhumerus -29.9346 21.6302 79.0187
lradius 34.7066
lwrist -12.6822
lhand -8.68541 15.1504
lfingers 7.12502
lthumb 17.2492 44.4049
rfemur -15.7394 11.7011 19.9074
rtibia 21.3152
rfoot -10.9988 16.0468
rtoes -15.0191
lfemur -11.6643 -9.60715 -14.8201
ltibia 24.9305
lfoot -19.0638 9.81994
ltoes -16.7606
846
root 43.7767 17.9686 10.6986 956.163 84.1774 1313.07
lowerback -0.520125 -3.2978 5.36898
upperback 0.101422 -4.42966 -0.701226
thorax -0.0662929 -2.21535 -3.72488
lowerneck 0.970131 13.8899 -1.73064
upperneck -1.97975 18.4488 -3.56441
head -0.570837 9.26831 -0.933094
rclavicle 1.39646e-014 -2.38542e-015
rhumerus -30.435 4.01756 -94.6344
rradius 33.4574
rwrist 26.8272
rhand 13.1506 -19.3938
rfingers 7.12502
rthumb 38.1081 -45.1636
lclavicle 1.39646e-014 -2.38542e-015
lhumerus -30.1671 21.8928 78.811
lradius 34.272
lwrist -13.3467
lhand -8.4309 15.0966
lfingers 7.12502
lthumb 17.4942 44.3295
rfemur -15.221 11.5023 19.8022
rtibia 20.9819
rfoot -9.69246 16.1302
rtoes -12.8187
lfemur -11.4741 -9.23969 -15.2108
ltibia 25.0639
lfoot -19.6239 8.86938
ltoes -17.3142
